REM DIRINDEX 1\2,1\3,1\4,1\5,1\6
REM DIRNAME cjc030,folder01,folder02,folder03,folder04,folder05
TITLE ""
FILE "Disc4Track09.mp3" MP3
  TRACK 01 AUDIO
    TITLE "3:cjc030_06395"
    INDEX 01 00:00:00
  TRACK 02 AUDIO
    TITLE "0:"
    INDEX 01 00:01:13
  TRACK 03 AUDIO
    TITLE "4:cjc030_06396"
    INDEX 01 00:01:22
  TRACK 04 AUDIO
    TITLE "0:"
    INDEX 01 00:02:16
  TRACK 05 AUDIO
    TITLE "5:cjc030_06397"
    INDEX 01 00:02:26
  TRACK 06 AUDIO
    TITLE "0:"
    INDEX 01 00:03:43
  TRACK 07 AUDIO
    TITLE "6:cjc030_06398"
    INDEX 01 00:03:55
  TRACK 08 AUDIO
    TITLE "0:"
    INDEX 01 00:08:01
  TRACK 09 AUDIO
    TITLE "3:cjc030_06399"
    INDEX 01 00:08:48
  TRACK 10 AUDIO
    TITLE "0:"
    INDEX 01 00:10:04
  TRACK 11 AUDIO
    TITLE "4:cjc030_06400"
    INDEX 01 00:10:14
  TRACK 12 AUDIO
    TITLE "0:"
    INDEX 01 00:11:39
  TRACK 13 AUDIO
    TITLE "5:cjc030_06401"
    INDEX 01 00:11:46
  TRACK 14 AUDIO
    TITLE "0:"
    INDEX 01 00:13:04
  TRACK 15 AUDIO
    TITLE "3:cjc030_06402"
    INDEX 01 00:13:57
  TRACK 16 AUDIO
    TITLE "0:"
    INDEX 01 00:15:05
  TRACK 17 AUDIO
    TITLE "4:cjc030_06403"
    INDEX 01 00:15:13
  TRACK 18 AUDIO
    TITLE "0:"
    INDEX 01 00:17:31
  TRACK 19 AUDIO
    TITLE "5:cjc030_06404"
    INDEX 01 00:17:41
  TRACK 20 AUDIO
    TITLE "0:"
    INDEX 01 00:18:62
  TRACK 21 AUDIO
    TITLE "3:cjc030_06405"
    INDEX 01 00:19:44
  TRACK 22 AUDIO
    TITLE "0:"
    INDEX 01 00:21:00
  TRACK 23 AUDIO
    TITLE "4:cjc030_06406"
    INDEX 01 00:21:09
  TRACK 24 AUDIO
    TITLE "0:"
    INDEX 01 00:22:32
  TRACK 25 AUDIO
    TITLE "5:cjc030_06407"
    INDEX 01 00:22:42
  TRACK 26 AUDIO
    TITLE "0:"
    INDEX 01 00:24:00
  TRACK 27 AUDIO
    TITLE "3:cjc030_06408"
    INDEX 01 00:24:53
  TRACK 28 AUDIO
    TITLE "0:"
    INDEX 01 00:26:17
  TRACK 29 AUDIO
    TITLE "4:cjc030_06409"
    INDEX 01 00:26:26
  TRACK 30 AUDIO
    TITLE "0:"
    INDEX 01 00:27:55
  TRACK 31 AUDIO
    TITLE "5:cjc030_06410"
    INDEX 01 00:27:65
  TRACK 32 AUDIO
    TITLE "0:"
    INDEX 01 00:29:31
  TRACK 33 AUDIO
    TITLE "6:cjc030_06411"
    INDEX 01 00:29:40
  TRACK 34 AUDIO
    TITLE "0:"
    INDEX 01 00:33:17
  TRACK 35 AUDIO
    TITLE "3:cjc030_06412"
    INDEX 01 00:33:64
  TRACK 36 AUDIO
    TITLE "0:"
    INDEX 01 00:35:25
  TRACK 37 AUDIO
    TITLE "4:cjc030_06413"
    INDEX 01 00:35:33
  TRACK 38 AUDIO
    TITLE "0:"
    INDEX 01 00:37:59
  TRACK 39 AUDIO
    TITLE "5:cjc030_06414"
    INDEX 01 00:37:67
  TRACK 40 AUDIO
    TITLE "0:"
    INDEX 01 00:39:29
  TRACK 41 AUDIO
    TITLE "3:cjc030_06415"
    INDEX 01 00:40:09
  TRACK 42 AUDIO
    TITLE "0:"
    INDEX 01 00:41:28
  TRACK 43 AUDIO
    TITLE "4:cjc030_06416"
    INDEX 01 00:41:38
  TRACK 44 AUDIO
    TITLE "0:"
    INDEX 01 00:43:50
  TRACK 45 AUDIO
    TITLE "5:cjc030_06417"
    INDEX 01 00:43:56
  TRACK 46 AUDIO
    TITLE "0:"
    INDEX 01 00:45:04
  TRACK 47 AUDIO
    TITLE "6:cjc030_06418"
    INDEX 01 00:45:16
  TRACK 48 AUDIO
    TITLE "0:"
    INDEX 01 00:47:50
  TRACK 49 AUDIO
    TITLE "3:cjc030_06419"
    INDEX 01 00:48:22
  TRACK 50 AUDIO
    TITLE "0:"
    INDEX 01 00:49:57
  TRACK 51 AUDIO
    TITLE "4:cjc030_06420"
    INDEX 01 00:49:65
  TRACK 52 AUDIO
    TITLE "0:"
    INDEX 01 00:51:71
  TRACK 53 AUDIO
    TITLE "5:cjc030_06421"
    INDEX 01 00:52:04
  TRACK 54 AUDIO
    TITLE "0:"
    INDEX 01 00:53:39
  TRACK 55 AUDIO
    TITLE "6:cjc030_06422"
    INDEX 01 00:53:51
  TRACK 56 AUDIO
    TITLE "0:"
    INDEX 01 00:56:35
  TRACK 57 AUDIO
    TITLE "3:cjc030_06423"
    INDEX 01 00:57:09
  TRACK 58 AUDIO
    TITLE "0:"
    INDEX 01 00:58:13
  TRACK 59 AUDIO
    TITLE "4:cjc030_06424"
    INDEX 01 00:58:22
  TRACK 60 AUDIO
    TITLE "0:"
    INDEX 01 00:59:12
  TRACK 61 AUDIO
    TITLE "5:cjc030_06425"
    INDEX 01 00:59:20
  TRACK 62 AUDIO
    TITLE "0:"
    INDEX 01 01:00:25
  TRACK 63 AUDIO
    TITLE "3:cjc030_06426"
    INDEX 01 01:01:09
  TRACK 64 AUDIO
    TITLE "0:"
    INDEX 01 01:03:39
  TRACK 65 AUDIO
    TITLE "4:cjc030_06427"
    INDEX 01 01:03:41
  TRACK 66 AUDIO
    TITLE "0:"
    INDEX 01 01:05:34
  TRACK 67 AUDIO
    TITLE "5:cjc030_06428"
    INDEX 01 01:05:36
  TRACK 68 AUDIO
    TITLE "0:"
    INDEX 01 01:07:72
  TRACK 69 AUDIO
    TITLE "6:cjc030_06429"
    INDEX 01 01:08:09
  TRACK 70 AUDIO
    TITLE "0:"
    INDEX 01 01:11:15
  TRACK 71 AUDIO
    TITLE "3:cjc030_06430"
    INDEX 01 01:11:62
  TRACK 72 AUDIO
    TITLE "0:"
    INDEX 01 01:13:08
  TRACK 73 AUDIO
    TITLE "4:cjc030_06431"
    INDEX 01 01:13:18
  TRACK 74 AUDIO
    TITLE "0:"
    INDEX 01 01:16:14
  TRACK 75 AUDIO
    TITLE "5:cjc030_06432"
    INDEX 01 01:16:22
  TRACK 76 AUDIO
    TITLE "0:"
    INDEX 01 01:17:45
  TRACK 77 AUDIO
    TITLE "3:cjc030_06433"
    INDEX 01 01:18:27
  TRACK 78 AUDIO
    TITLE "0:"
    INDEX 01 01:19:30
  TRACK 79 AUDIO
    TITLE "4:cjc030_06434"
    INDEX 01 01:19:36
  TRACK 80 AUDIO
    TITLE "0:"
    INDEX 01 01:23:03
  TRACK 81 AUDIO
    TITLE "5:cjc030_06435"
    INDEX 01 01:23:11
  TRACK 82 AUDIO
    TITLE "0:"
    INDEX 01 01:24:14
